<?xml version="1.0" encoding="UTF-8" standalone="no"?>
<svg
   viewBox="0 0 730 140"
   fill="none"
   version="1.1"
   id="svg6"
   sodipodi:docname="logotype.svg"
   inkscape:version="1.4.4 (dcaf3e7d9e, 2026-05-05)"
   inkscape:export-filename="logotype.jpg"
   inkscape:export-xdpi="96"
   inkscape:export-ydpi="96"
   xmlns:inkscape="http://www.inkscape.org/namespaces/inkscape"
   xmlns:sodipodi="http://sodipodi.sourceforge.net/DTD/sodipodi-0.dtd"
   xmlns="http://www.w3.org/2000/svg"
   xmlns:svg="http://www.w3.org/2000/svg">
  <sodipodi:namedview
     id="namedview1"
     pagecolor="#ffffff"
     bordercolor="#000000"
     borderopacity="0.25"
     inkscape:showpageshadow="2"
     inkscape:pageopacity="0.0"
     inkscape:pagecheckerboard="0"
     inkscape:deskcolor="#d1d1d1"
     inkscape:zoom="0.45445206"
     inkscape:cx="357.57347"
     inkscape:cy="355.37302"
     inkscape:window-width="1421"
     inkscape:window-height="778"
     inkscape:window-x="0"
     inkscape:window-y="0"
     inkscape:window-maximized="1"
     inkscape:current-layer="svg6" />
  <defs
     id="defs6" />
  <title
     id="title1">Chat with Work</title>
  <path
     d="m 220.089,477.997 c -3.41,-2.47 -4.48,-6.08 -3.07,-10.34 0.65,-1.97 4.54,-9.6 8.65,-16.95 6.58,-11.8 13.74,-26.81 15.58,-32.69 0.61,-1.96 0.16,-2 -24.61,-2.05 -27.07,-0.05 -40.436,-1.247 -61.35,-7.01 C 68.831,385.135 41.352,323.217 37.062,285.82 24.367,175.15 89.102,118.229 154.528,92.757 c 96.188,-37.448 168.187,7.197 187.256,20.423 43.801,30.378 62.083,79.485 49.328,118.036 -10.21,30.86 -66.413,123.702 -123.906,121.46 -34.662,-1.352 -31.816,-81.196 -30.216,-96.116 0.53,-4.92 0.83,-9.07 0.67,-9.23 -0.16,-0.16 -3.16,5.21 -6.67,11.94 -10.56,20.24 -60.801,85.43 -82.44,86.23 -43.535,1.61 -28.09,-83.52 -21.1,-115.3 4.62,-21.01 7.31,-36.31 8.08,-45.84 0.34,-4.32 1.1,-9.11 1.69,-10.65 2.16,-5.71 8.33,-6.36 13.29,-1.4 8.03,8.03 11.219,20.956 0.259,73.056 -9.91,47.11 -7.521,62.415 1.849,68.555 2.18,1.43 18.955,-10.253 51.195,-61.103 20.91,-32.97 35.007,-43.548 38.087,-45.748 6.74,-4.8 15.35,-3.35 18.71,3.15 2.77,5.36 -5.969,94.53 8.644,105.318 23.223,17.143 81.335,-53.425 93.668,-86.443 C 392.185,150.747 301.096,82.674 197.691,109.01 90.227,136.38 61.531,207.321 63.553,264.825 c 1.681,47.825 27.332,86.562 84.307,111.69 41.983,18.517 111.549,9.578 122.149,13.277 12.107,4.224 -11.419,48.076 -11.719,48.766 -0.92,2.12 33.65,-26.057 50.117,-40.739 87.387,-77.912 109.573,-137.866 116.929,-145.773 14.598,-15.694 9.761,22.875 -10.765,61.04 -31.322,58.241 -112.016,133.264 -168.542,161.131 -7.85,3.87 -10.53,4.68 -16.5,5.03 -5.57,0.33 -7.64,0.06 -9.44,-1.25 z"
     id="path2"
     style="display:inline;fill:#000000"
     transform="matrix(0.249215,0,0,0.24921518,3.531,0.53258929)" />
  <path
     d="m 173.448,102.298 q -6.72,0 -12.432,-2.436 -5.628,-2.436 -9.912,-6.804 -4.2,-4.368 -6.552,-10.248 -2.352,-5.88 -2.352,-12.852 0,-6.972 2.268,-12.852 2.352,-5.964 6.552,-10.248 4.284,-4.368 9.996,-6.72 5.712,-2.436 12.432,-2.436 6.72,0 12.012,2.268 5.376,2.268 9.072,6.048 3.696,3.696 5.292,8.148 l -10.248,4.788 q -1.764,-4.704 -5.964,-7.728 -4.2,-3.108 -10.164,-3.108 -5.88,0 -10.416,2.772 -4.452,2.772 -6.972,7.644 -2.436,4.872 -2.436,11.424 0,6.552 2.436,11.508 2.52,4.872 6.972,7.644 4.536,2.772 10.416,2.772 5.964,0 10.164,-3.024 4.2,-3.108 5.964,-7.812 l 10.248,4.788 q -1.596,4.452 -5.292,8.232 -3.696,3.696 -9.072,5.964 -5.292,2.268 -12.012,2.268 z m 31.89201,-1.008 V 37.702 h 11.004 v 26.88 l -1.512,-1.596 q 1.596,-4.116 5.208,-6.216 3.696,-2.184 8.568,-2.184 5.04,0 8.904,2.184 3.948,2.184 6.132,6.132 2.184,3.864 2.184,8.988 v 29.4 h -11.004 V 74.494 q 0,-3.024 -1.176,-5.208 -1.176,-2.184 -3.276,-3.36 -2.016,-1.26 -4.788,-1.26 -2.688,0 -4.788,1.26 -2.1,1.176 -3.276,3.36 -1.176,2.184 -1.176,5.208 v 26.796 z m 60.87204,1.008 q -4.788,0 -8.316,-1.596 -3.528,-1.596 -5.46,-4.536 -1.932,-3.024 -1.932,-6.972 0,-3.78 1.68,-6.72 1.68,-3.024 5.208,-5.04 3.528,-2.016 8.904,-2.856 l 14.952,-2.436 v 8.4 l -12.852,2.184 q -3.276,0.588 -4.872,2.1 -1.596,1.512 -1.596,3.948 0,2.352 1.764,3.78 1.848,1.344 4.536,1.344 3.444,0 6.048,-1.428 2.688,-1.512 4.116,-4.116 1.512,-2.604 1.512,-5.712 v -11.76 q 0,-2.94 -2.352,-4.872 -2.268,-2.016 -6.048,-2.016 -3.528,0 -6.3,1.932 -2.688,1.848 -3.948,4.956 l -8.988,-4.368 q 1.344,-3.612 4.2,-6.216 2.94,-2.688 6.888,-4.2 3.948,-1.512 8.568,-1.512 5.628,0 9.912,2.1 4.284,2.016 6.636,5.712 2.436,3.612 2.436,8.484 v 30.408 h -10.416 v -7.812 l 2.352,-0.168 q -1.764,2.94 -4.2,4.956 -2.436,1.932 -5.544,3.024 -3.108,1.008 -6.888,1.008 z m 52.05198,-0.504 q -7.728,0 -12.012,-4.2 -4.2,-4.284 -4.2,-12.012 v -20.16 h -7.896 v -9.828 h 0.84 q 3.36,0 5.208,-1.764 1.848,-1.764 1.848,-5.124 v -3.528 h 11.004 v 10.416 h 10.5 v 9.828 h -10.5 v 19.572 q 0,2.268 0.756,3.864 0.84,1.596 2.52,2.436 1.764,0.84 4.452,0.84 0.588,0 1.344,-0.084 0.84,-0.084 1.596,-0.168 v 9.408 q -1.176,0.168 -2.688,0.336 -1.512,0.168 -2.772,0.168 z m 34.71996,-0.504 -15.708,-45.696 h 11.592 l 11.508,34.692 -4.032,-0.084 12.264,-34.608 h 9.744 l 12.18,34.608 -4.032,0.084 11.508,-34.692 h 11.592 l -15.708,45.696 h -9.828 l -12.432,-36.204 h 3.696 l -12.6,36.204 z m 59.86395,0 V 55.594 h 11.004 v 45.696 z m 0,-50.82 V 38.71 h 11.004 v 11.76 z m 39.20007,51.324 q -7.728,0 -12.012,-4.2 -4.2,-4.284 -4.2,-12.012 v -20.16 h -7.896 v -9.828 h 0.84 q 3.36,0 5.208,-1.764 1.848,-1.764 1.848,-5.124 v -3.528 h 11.004 v 10.416 h 10.5 v 9.828 h -10.5 v 19.572 q 0,2.268 0.756,3.864 0.84,1.596 2.52,2.436 1.764,0.84 4.452,0.84 0.588,0 1.344,-0.084 0.84,-0.084 1.596,-0.168 v 9.408 q -1.176,0.168 -2.688,0.336 -1.512,0.168 -2.772,0.168 z m 11.06,-0.504 V 37.702 h 11.004 v 26.88 l -1.512,-1.596 q 1.596,-4.116 5.208,-6.216 3.696,-2.184 8.568,-2.184 5.04,0 8.904,2.184 3.948,2.184 6.132,6.132 2.184,3.864 2.184,8.988 v 29.4 h -11.004 V 74.494 q 0,-3.024 -1.176,-5.208 -1.176,-2.184 -3.276,-3.36 -2.016,-1.26 -4.788,-1.26 -2.688,0 -4.788,1.26 -2.1,1.176 -3.276,3.36 -1.176,2.184 -1.176,5.208 v 26.796 z m 71.764,0 -16.8,-62.58 h 12.264 l 13.188,53.34 h -3.192 l 13.776,-53.34 h 11.844 l 13.692,53.34 h -3.192 l 13.188,-53.34 h 12.264 l -16.8,62.58 h -13.104 l -13.86,-51.912 h 3.696 l -13.86,51.912 z m 89.89393,1.008 q -6.72,0 -12.264,-3.108 -5.46,-3.108 -8.736,-8.484 -3.192,-5.376 -3.192,-12.264 0,-6.888 3.192,-12.264 3.276,-5.376 8.736,-8.484 5.46,-3.108 12.264,-3.108 6.72,0 12.18,3.108 5.46,3.108 8.652,8.484 3.276,5.292 3.276,12.264 0,6.888 -3.276,12.264 -3.276,5.376 -8.736,8.484 -5.46,3.108 -12.096,3.108 z m 0,-10.08 q 3.696,0 6.468,-1.764 2.856,-1.764 4.452,-4.872 1.68,-3.192 1.68,-7.14 0,-4.032 -1.68,-7.056 -1.596,-3.108 -4.452,-4.872 -2.772,-1.848 -6.468,-1.848 -3.78,0 -6.636,1.848 -2.856,1.764 -4.536,4.872 -1.596,3.024 -1.596,7.056 0,3.948 1.596,7.14 1.68,3.108 4.536,4.872 2.856,1.764 6.636,1.764 z m 29.62405,9.072 V 55.594 h 10.332 v 10.164 l -0.84,-1.512 q 1.596,-5.124 4.956,-7.14 3.444,-2.016 8.232,-2.016 h 2.688 v 9.744 h -3.948 q -4.704,0 -7.56,2.94 -2.856,2.856 -2.856,8.064 v 25.452 z m 28.61603,0 V 37.702 h 11.004 v 41.664 l -4.2,-1.26 21.504,-22.512 h 13.692 l -16.884,18.396 17.22,27.3 h -12.6 l -14.952,-23.688 6.552,-1.344 -13.776,14.784 3.444,-6.72 v 16.968 z"
     id="text6"
     style="font-weight:700;font-size:84px;font-family:'Plus Jakarta Sans';letter-spacing:-2.8;fill:#111111"
     aria-label="Chat with Work" />
</svg>
