<?xml version="1.0" encoding="UTF-8" standalone="no"?>
<svg
   viewBox="0 0 475 140"
   version="1.1"
   xml:space="preserve"
   style="fill-rule:evenodd;clip-rule:evenodd;stroke-linejoin:round;stroke-miterlimit:2;"
   id="svg96"
   sodipodi:docname="logotype_dark.svg"
   inkscape:version="1.4.4 (dcaf3e7d9e, 2026-05-05)"
   inkscape:export-filename="logotype.jpg"
   inkscape:export-xdpi="96"
   inkscape:export-ydpi="96"
   xmlns:inkscape="http://www.inkscape.org/namespaces/inkscape"
   xmlns:sodipodi="http://sodipodi.sourceforge.net/DTD/sodipodi-0.dtd"
   xmlns="http://www.w3.org/2000/svg"
   xmlns:svg="http://www.w3.org/2000/svg"
   xmlns:rdf="http://www.w3.org/1999/02/22-rdf-syntax-ns#"
   xmlns:cc="http://creativecommons.org/ns#"
   xmlns:dc="http://purl.org/dc/elements/1.1/"><sodipodi:namedview
   id="namedview96"
   pagecolor="#ffffff"
   bordercolor="#000000"
   borderopacity="0.25"
   inkscape:showpageshadow="2"
   inkscape:pageopacity="0.0"
   inkscape:pagecheckerboard="0"
   inkscape:deskcolor="#d1d1d1"
   inkscape:zoom="0.9336842"
   inkscape:cx="335.76663"
   inkscape:cy="330.4115"
   inkscape:window-width="1421"
   inkscape:window-height="1566"
   inkscape:window-x="0"
   inkscape:window-y="0"
   inkscape:window-maximized="1"
   inkscape:current-layer="svg96" />
    <title
   id="title1">RubyLLM</title>
    <g
   transform="translate(12 20) scale(0.1953125)"
   id="g7">
        <g
   transform="matrix(1,0,0,1,-6.23501,-2.41232)"
   id="g6">
                <g
   id="Light"
   transform="matrix(1,0,0,1,6.23501,2.41232)">
                    <rect
   x="0"
   y="0"
   width="512"
   height="512"
   style="fill:none;"
   id="rect1" />
                    <g
   transform="matrix(1.13848,0,0,1.13848,-50.1797,11.4251)"
   id="g5">
                        <g
   transform="matrix(1.19268,1.19099,-1.19099,1.19268,254.868,-31.4857)"
   id="g2">
                            <g
   id="g1">
                                <path
   id="polygon3282"
   d="M153.5,130.41L40.38,197.58L186.849,187.641L198.13,39.95L153.5,130.41Z"
   style="fill:url(#_Linear1);" />
                                <path
   id="polygon3293"
   d="M187.089,187.54L174.5,100.65L140.209,145.93L187.089,187.54Z"
   style="fill:url(#_Linear2);" />
                                <path
   id="polygon3304"
   d="M187.259,187.54L95.03,180.3L40.87,197.391L187.259,187.54Z"
   style="fill:url(#_Linear3);" />
                                <path
   id="polygon3319"
   d="M41,197.41L64.04,121.93L13.34,132.771L41,197.41Z"
   style="fill:url(#_Linear4);" />
                                <path
   id="polygon3334"
   d="M140.2,146.18L119,63.14L58.33,120.01L140.2,146.18Z"
   style="fill:url(#_Linear5);" />
                                <path
   id="polygon3349"
   d="M193.32,64.31L135.97,17.47L120,69.1L193.32,64.31Z"
   style="fill:url(#_Linear6);" />
                                <path
   id="polygon3362"
   d="M166.5,0.77L132.77,19.41L111.49,0.52L166.5,0.77Z"
   style="fill:url(#_Linear7);" />
                                <path
   id="polygon3375"
   d="M0,158.09L14.13,132.32L2.7,101.62L0,158.09Z"
   style="fill:url(#_Linear8);" />
                                <path
   id="path3377"
   d="M1.94,100.65L13.44,133.27L63.41,122.059L120.46,69.039L136.56,17.9L111.209,0L68.109,16.13C54.53,28.76 28.18,53.75 27.23,54.22C26.29,54.7 9.83,85.81 1.94,100.65Z"
   style="fill:white;" />
                                <path
   id="path3400"
   d="M42.32,42.05C71.75,12.87 109.69,-4.37 124.25,10.32C138.801,25.01 123.37,60.71 93.94,89.88C64.51,119.05 27.04,137.24 12.49,122.55C-2.07,107.87 12.89,71.22 42.32,42.05Z"
   style="fill:url(#_Linear9);" />
                                <path
   id="path3413"
   d="M41,197.38L63.86,121.66L139.78,146.05C112.33,171.79 81.8,193.55 41,197.38Z"
   style="fill:url(#_Linear10);" />
                                <path
   id="path3424"
   d="M120.56,68.89L140.05,146.09C162.98,121.98 183.56,96.06 193.639,64L120.56,68.89Z"
   style="fill:url(#_Linear11);" />
                                <path
   id="path3435"
   d="M193.44,64.39C201.24,40.85 203.04,7.08 166.259,0.81L136.079,17.48L193.44,64.39Z"
   style="fill:url(#_Linear12);" />
                                <path
   id="path3437"
   d="M0,157.75C1.08,196.601 29.11,197.18 41.05,197.521L13.47,133.11L0,157.75Z"
   style="fill:rgb(158,18,9);" />
                                <path
   id="path3448"
   d="M120.669,69.01C138.289,79.84 173.8,101.59 174.52,101.99C175.639,102.62 189.83,78.06 193.05,64.18L120.669,69.01Z"
   style="fill:url(#_Radial13);" />
                                <path
   id="path3459"
   d="M63.83,121.66L94.39,180.62C112.46,170.82 126.61,158.88 139.57,146.09L63.83,121.66Z"
   style="fill:url(#_Radial14);" />
                                <path
   id="path3472"
   d="M13.35,133.19L9.02,184.75C17.19,195.91 28.43,196.88 40.22,196.01C31.69,174.78 14.65,132.33 13.35,133.19Z"
   style="fill:url(#_Linear15);" />
                                <path
   id="path3485"
   d="M135.9,17.61L196.61,26.13C193.37,12.4 183.42,3.54 166.46,0.77L135.9,17.61Z"
   style="fill:url(#_Linear16);" />
                            </g>
                        </g>
                        <g
   id="XMLID_22_"
   transform="matrix(0.56475,0,0,0.566265,267.898,-0.682123)">
                            <g
   id="g3">
                                <rect
   id="XMLID_101_"
   x="53.3"
   y="26.7"
   width="293.4"
   height="26.6"
   style="fill-rule:nonzero;" />
                                <rect
   id="XMLID_177_"
   x="26.7"
   y="53.3"
   width="26.7"
   height="26.7" />
                                <rect
   id="XMLID_178_"
   x="346.7"
   y="53.3"
   width="26.7"
   height="26.7" />
                                <rect
   id="XMLID_179_"
   x="373.3"
   y="80"
   width="26.7"
   height="186.7"
   style="fill-rule:nonzero;" />
                                <rect
   id="XMLID_180_"
   x="106.7"
   y="160"
   width="26.7"
   height="26.7" />
                                <rect
   id="XMLID_181_"
   x="186.7"
   y="160"
   width="26.7"
   height="26.7" />
                                <rect
   id="XMLID_182_"
   x="266.7"
   y="160"
   width="26.7"
   height="26.7" />
                                <rect
   id="XMLID_183_"
   x="0"
   y="80"
   width="26.7"
   height="186.7"
   style="fill-rule:nonzero;" />
                                <rect
   id="XMLID_184_"
   x="26.7"
   y="266.7"
   width="26.7"
   height="26.7" />
                                <rect
   id="XMLID_185_"
   x="346.7"
   y="266.7"
   width="26.7"
   height="26.7" />
                                <rect
   id="XMLID_211_"
   x="53.3"
   y="293.3"
   width="106.7"
   height="26.7"
   style="fill-rule:nonzero;" />
                                <rect
   id="XMLID_212_"
   x="240"
   y="293.3"
   width="106.7"
   height="26.7"
   style="fill-rule:nonzero;" />
                                <rect
   id="XMLID_213_"
   x="160"
   y="320"
   width="26.7"
   height="26.7" />
                                <rect
   id="XMLID_214_"
   x="213.3"
   y="320"
   width="26.7"
   height="26.7" />
                                <rect
   id="XMLID_215_"
   x="186.7"
   y="346.7"
   width="26.7"
   height="26.7" />
                            </g>
                            <g
   transform="matrix(0.5,0,0,0.5,0,0)"
   id="g4">
                                <path
   d="M53.4,533.4L53.4,160L106.8,160L106.8,106.6L693.4,106.6L693.4,160L746.6,160L746.6,533.4L693.4,533.4L693.4,586.6L480,586.6L480,640L426.6,640L426.6,693.4L373.4,693.4L373.4,640L320,640L320,586.6L106.8,586.6L106.8,533.4L53.4,533.4ZM266.8,320L213.4,320L213.4,373.4L266.8,373.4L266.8,320ZM426.8,320L373.4,320L373.4,373.4L426.8,373.4L426.8,320ZM586.8,320L533.4,320L533.4,373.4L586.8,373.4L586.8,320Z"
   style="fill:white;"
   id="path3" />
                            </g>
                        </g>
                    </g>
                </g>
            </g>
    </g>
    <g
   transform="matrix(1.55,0,0,1.55,82.6,-175.44715)"
   fill="#111111"
   id="g15"
   style="fill:#ffffff;fill-opacity:1">
                        <g
   transform="matrix(48,0,0,48,28.2017,176.233)"
   id="g8"
   style="fill:#ffffff;fill-opacity:1">
                            <path
   d="m 0.072,0 v -0.745 h 0.277 c 0.051,0 0.096,0.009 0.135,0.027 0.039,0.019 0.069,0.045 0.091,0.08 0.022,0.035 0.033,0.078 0.033,0.128 0,0.052 -0.012,0.095 -0.036,0.131 -0.025,0.036 -0.058,0.063 -0.099,0.08 L 0.644,0 H 0.49 L 0.307,-0.327 0.395,-0.275 H 0.208 V 0 Z m 0.136,-0.395 h 0.143 c 0.025,0 0.046,-0.005 0.064,-0.014 0.018,-0.01 0.032,-0.023 0.042,-0.041 0.01,-0.017 0.015,-0.037 0.015,-0.06 0,-0.023 -0.005,-0.043 -0.015,-0.061 C 0.447,-0.588 0.433,-0.601 0.415,-0.611 0.397,-0.62 0.376,-0.625 0.351,-0.625 H 0.208 Z"
   style="fill:#ffffff;fill-opacity:1;fill-rule:nonzero"
   id="path7" />
                        </g>
                        <g
   transform="matrix(48,0,0,48,59.9057,176.23339)"
   id="g9"
   style="fill:#ffffff;fill-opacity:1">
                            <path
   d="M 0.255,0.012 C 0.213,0.012 0.176,0.003 0.145,-0.016 0.114,-0.035 0.091,-0.061 0.074,-0.094 0.058,-0.128 0.05,-0.166 0.05,-0.211 v -0.333 h 0.131 v 0.322 c 0,0.023 0.004,0.043 0.014,0.06 0.009,0.017 0.022,0.03 0.038,0.04 0.017,0.009 0.036,0.014 0.058,0.014 0.021,0 0.041,-0.005 0.057,-0.014 0.017,-0.01 0.03,-0.024 0.039,-0.041 0.009,-0.018 0.014,-0.038 0.014,-0.062 V -0.544 H 0.532 V 0 H 0.408 v -0.107 l 0.011,0.019 C 0.406,-0.055 0.385,-0.03 0.356,-0.013 0.327,0.004 0.294,0.012 0.255,0.012 Z"
   style="fill:#ffffff;fill-opacity:1;fill-rule:nonzero"
   id="path8" />
                        </g>
                        <g
   transform="matrix(48,0,0,48,88.3457,176.23352)"
   id="g10"
   style="fill:#ffffff;fill-opacity:1">
                            <path
   d="M 0.358,0.012 C 0.318,0.012 0.282,0.004 0.249,-0.011 0.216,-0.027 0.19,-0.049 0.171,-0.079 L 0.184,-0.105 V 0 H 0.061 v -0.757 h 0.131 v 0.321 l -0.02,-0.027 c 0.018,-0.029 0.044,-0.052 0.076,-0.068 0.032,-0.016 0.069,-0.025 0.111,-0.025 0.051,0 0.098,0.013 0.139,0.038 0.042,0.025 0.074,0.059 0.099,0.102 0.024,0.043 0.036,0.091 0.036,0.144 0,0.053 -0.012,0.101 -0.036,0.144 C 0.573,-0.085 0.54,-0.051 0.499,-0.026 0.457,-0.001 0.41,0.012 0.358,0.012 Z m -0.015,-0.12 c 0.03,0 0.057,-0.007 0.08,-0.021 0.023,-0.014 0.041,-0.033 0.054,-0.058 0.013,-0.025 0.02,-0.053 0.02,-0.085 0,-0.032 -0.007,-0.06 -0.02,-0.084 C 0.464,-0.381 0.446,-0.4 0.423,-0.414 0.4,-0.428 0.373,-0.436 0.343,-0.436 c -0.029,0 -0.055,0.007 -0.078,0.021 -0.023,0.014 -0.041,0.034 -0.054,0.059 -0.013,0.024 -0.019,0.053 -0.019,0.084 0,0.032 0.006,0.06 0.019,0.085 0.013,0.025 0.031,0.044 0.054,0.058 0.023,0.014 0.049,0.021 0.078,0.021 z"
   style="fill:#ffffff;fill-opacity:1;fill-rule:nonzero"
   id="path9" />
                        </g>
                        <g
   transform="matrix(48,0,0,48,120.098,176.23352)"
   id="g11"
   style="fill:#ffffff;fill-opacity:1">
                            <path
   d="M 0.127,0.22 C 0.112,0.22 0.098,0.219 0.084,0.216 0.07,0.214 0.057,0.21 0.046,0.205 v -0.11 c 0.009,0.002 0.019,0.004 0.031,0.006 0.012,0.002 0.024,0.003 0.035,0.003 0.03,0 0.052,-0.007 0.066,-0.021 C 0.191,0.07 0.203,0.051 0.214,0.029 L 0.25,-0.055 0.248,0.055 0.011,-0.544 h 0.141 l 0.166,0.442 H 0.268 L 0.433,-0.544 H 0.575 L 0.338,0.055 C 0.324,0.09 0.307,0.119 0.287,0.144 0.267,0.169 0.244,0.188 0.217,0.201 0.191,0.214 0.161,0.22 0.127,0.22 Z"
   style="fill:#ffffff;fill-opacity:1;fill-rule:nonzero"
   id="path10" />
                        </g>
                        <g
   transform="matrix(48,0,0,48,148.202,176.23352)"
   id="g12"
   style="fill:#ffffff;fill-opacity:1">
                            <path
   d="M 0.072,0 V -0.745 H 0.208 V -0.12 H 0.527 V 0 Z"
   style="fill:#ffffff;fill-opacity:1;fill-rule:nonzero"
   id="path11" />
                        </g>
                        <g
   transform="matrix(48,0,0,48,174.266,176.23352)"
   id="g13"
   style="fill:#ffffff;fill-opacity:1">
                            <path
   d="M 0.072,0 V -0.745 H 0.208 V -0.12 H 0.527 V 0 Z"
   style="fill:#ffffff;fill-opacity:1;fill-rule:nonzero"
   id="path12" />
                        </g>
                        <g
   transform="matrix(48,0,0,48,200.33,176.23352)"
   id="g14"
   style="fill:#ffffff;fill-opacity:1">
                            <path
   d="m 0.072,0 v -0.745 h 0.13 l 0.279,0.379 H 0.419 l 0.273,-0.379 h 0.13 V 0 H 0.685 V -0.59 L 0.738,-0.577 0.455,-0.2 H 0.439 L 0.163,-0.577 0.208,-0.59 V 0 Z"
   style="fill:#ffffff;fill-opacity:1;fill-rule:nonzero"
   id="path13" />
                        </g>
    </g>
    <defs
   id="defs96">
        <linearGradient
   id="_Linear1"
   x1="0"
   y1="0"
   x2="1"
   y2="0"
   gradientUnits="userSpaceOnUse"
   gradientTransform="matrix(-41.7974,-73.7955,73.7955,-41.7974,174.074,215.549)"><stop
     offset="0"
     style="stop-color:rgb(251,118,85);stop-opacity:1"
     id="stop15" /><stop
     offset="0"
     style="stop-color:rgb(251,118,85);stop-opacity:1"
     id="stop16" /><stop
     offset="0.41"
     style="stop-color:rgb(228,43,30);stop-opacity:1"
     id="stop17" /><stop
     offset="0.99"
     style="stop-color:rgb(153,0,0);stop-opacity:1"
     id="stop18" /><stop
     offset="1"
     style="stop-color:rgb(153,0,0);stop-opacity:1"
     id="stop19" /></linearGradient>
        <linearGradient
   id="_Linear2"
   x1="0"
   y1="0"
   x2="1"
   y2="0"
   gradientUnits="userSpaceOnUse"
   gradientTransform="matrix(-53.8674,-36.1483,36.1483,-53.8674,194.895,153.558)"><stop
     offset="0"
     style="stop-color:rgb(135,17,1);stop-opacity:1"
     id="stop20" /><stop
     offset="0"
     style="stop-color:rgb(135,17,1);stop-opacity:1"
     id="stop21" /><stop
     offset="0.99"
     style="stop-color:rgb(145,18,9);stop-opacity:1"
     id="stop22" /><stop
     offset="1"
     style="stop-color:rgb(145,18,9);stop-opacity:1"
     id="stop23" /></linearGradient>
        <linearGradient
   id="_Linear3"
   x1="0"
   y1="0"
   x2="1"
   y2="0"
   gradientUnits="userSpaceOnUse"
   gradientTransform="matrix(-53.8657,-36.1472,36.1472,-53.8657,151.795,217.785)"><stop
     offset="0"
     style="stop-color:rgb(135,17,1);stop-opacity:1"
     id="stop24" /><stop
     offset="0"
     style="stop-color:rgb(135,17,1);stop-opacity:1"
     id="stop25" /><stop
     offset="0.99"
     style="stop-color:rgb(145,18,9);stop-opacity:1"
     id="stop26" /><stop
     offset="1"
     style="stop-color:rgb(145,18,9);stop-opacity:1"
     id="stop27" /></linearGradient>
        <linearGradient
   id="_Linear4"
   x1="0"
   y1="0"
   x2="1"
   y2="0"
   gradientUnits="userSpaceOnUse"
   gradientTransform="matrix(8.3506,54.2708,-54.2708,8.3506,38.6963,127.391)"><stop
     offset="0"
     style="stop-color:white;stop-opacity:1"
     id="stop28" /><stop
     offset="0"
     style="stop-color:white;stop-opacity:1"
     id="stop29" /><stop
     offset="0.23"
     style="stop-color:rgb(229,114,82);stop-opacity:1"
     id="stop30" /><stop
     offset="0.46"
     style="stop-color:rgb(222,59,32);stop-opacity:1"
     id="stop31" /><stop
     offset="0.99"
     style="stop-color:rgb(166,0,3);stop-opacity:1"
     id="stop32" /><stop
     offset="1"
     style="stop-color:rgb(166,0,3);stop-opacity:1"
     id="stop33" /></linearGradient>
        <linearGradient
   id="_Linear5"
   x1="0"
   y1="0"
   x2="1"
   y2="0"
   gradientUnits="userSpaceOnUse"
   gradientTransform="matrix(3.07681,55.3868,-55.3868,3.07681,96.1328,76.7153)"><stop
     offset="0"
     style="stop-color:white;stop-opacity:1"
     id="stop34" /><stop
     offset="0"
     style="stop-color:white;stop-opacity:1"
     id="stop35" /><stop
     offset="0.23"
     style="stop-color:rgb(228,113,78);stop-opacity:1"
     id="stop36" /><stop
     offset="0.56"
     style="stop-color:rgb(190,26,13);stop-opacity:1"
     id="stop37" /><stop
     offset="0.99"
     style="stop-color:rgb(168,13,0);stop-opacity:1"
     id="stop38" /><stop
     offset="1"
     style="stop-color:rgb(168,13,0);stop-opacity:1"
     id="stop39" /></linearGradient>
        <linearGradient
   id="_Linear6"
   x1="0"
   y1="0"
   x2="1"
   y2="0"
   gradientUnits="userSpaceOnUse"
   gradientTransform="matrix(9.2111,39.6952,-39.6952,9.2111,147.103,25.521)"><stop
     offset="0"
     style="stop-color:white;stop-opacity:1"
     id="stop40" /><stop
     offset="0"
     style="stop-color:white;stop-opacity:1"
     id="stop41" /><stop
     offset="0.18"
     style="stop-color:rgb(228,99,66);stop-opacity:1"
     id="stop42" /><stop
     offset="0.4"
     style="stop-color:rgb(200,36,16);stop-opacity:1"
     id="stop43" /><stop
     offset="0.99"
     style="stop-color:rgb(168,13,0);stop-opacity:1"
     id="stop44" /><stop
     offset="1"
     style="stop-color:rgb(168,13,0);stop-opacity:1"
     id="stop45" /></linearGradient>
        <linearGradient
   id="_Linear7"
   x1="0"
   y1="0"
   x2="1"
   y2="0"
   gradientUnits="userSpaceOnUse"
   gradientTransform="matrix(39.6925,-19.8463,19.8463,39.6925,118.976,11.5415)"><stop
     offset="0"
     style="stop-color:white;stop-opacity:1"
     id="stop46" /><stop
     offset="0"
     style="stop-color:white;stop-opacity:1"
     id="stop47" /><stop
     offset="0.54"
     style="stop-color:rgb(200,31,17);stop-opacity:1"
     id="stop48" /><stop
     offset="0.99"
     style="stop-color:rgb(191,9,5);stop-opacity:1"
     id="stop49" /><stop
     offset="1"
     style="stop-color:rgb(191,9,5);stop-opacity:1"
     id="stop50" /></linearGradient>
        <linearGradient
   id="_Linear8"
   x1="0"
   y1="0"
   x2="1"
   y2="0"
   gradientUnits="userSpaceOnUse"
   gradientTransform="matrix(3.2669,32.7081,-32.7081,3.2669,3.9033,113.555)"><stop
     offset="0"
     style="stop-color:white;stop-opacity:1"
     id="stop51" /><stop
     offset="0"
     style="stop-color:white;stop-opacity:1"
     id="stop52" /><stop
     offset="0.31"
     style="stop-color:rgb(222,64,36);stop-opacity:1"
     id="stop53" /><stop
     offset="0.99"
     style="stop-color:rgb(191,25,11);stop-opacity:1"
     id="stop54" /><stop
     offset="1"
     style="stop-color:rgb(191,25,11);stop-opacity:1"
     id="stop55" /></linearGradient>
        <linearGradient
   id="_Linear9"
   x1="0"
   y1="0"
   x2="1"
   y2="0"
   gradientUnits="userSpaceOnUse"
   gradientTransform="matrix(153.571,-157.914,157.914,153.571,-18.5557,155.105)"><stop
     offset="0"
     style="stop-color:rgb(189,0,18);stop-opacity:1"
     id="stop56" /><stop
     offset="0"
     style="stop-color:rgb(189,0,18);stop-opacity:1"
     id="stop57" /><stop
     offset="0.07"
     style="stop-color:white;stop-opacity:1"
     id="stop58" /><stop
     offset="0.17"
     style="stop-color:white;stop-opacity:1"
     id="stop59" /><stop
     offset="0.27"
     style="stop-color:rgb(200,47,28);stop-opacity:1"
     id="stop60" /><stop
     offset="0.33"
     style="stop-color:rgb(130,12,1);stop-opacity:1"
     id="stop61" /><stop
     offset="0.46"
     style="stop-color:rgb(163,22,1);stop-opacity:1"
     id="stop62" /><stop
     offset="0.72"
     style="stop-color:rgb(179,19,1);stop-opacity:1"
     id="stop63" /><stop
     offset="0.99"
     style="stop-color:rgb(232,38,9);stop-opacity:1"
     id="stop64" /><stop
     offset="1"
     style="stop-color:rgb(232,38,9);stop-opacity:1"
     id="stop65" /></linearGradient>
        <linearGradient
   id="_Linear10"
   x1="0"
   y1="0"
   x2="1"
   y2="0"
   gradientUnits="userSpaceOnUse"
   gradientTransform="matrix(-46.257,-11.4166,11.4166,-46.257,99.0747,171.033)"><stop
     offset="0"
     style="stop-color:rgb(140,12,1);stop-opacity:1"
     id="stop66" /><stop
     offset="0"
     style="stop-color:rgb(140,12,1);stop-opacity:1"
     id="stop67" /><stop
     offset="0.54"
     style="stop-color:rgb(153,12,0);stop-opacity:1"
     id="stop68" /><stop
     offset="0.99"
     style="stop-color:rgb(168,13,14);stop-opacity:1"
     id="stop69" /><stop
     offset="1"
     style="stop-color:rgb(168,13,14);stop-opacity:1"
     id="stop70" /></linearGradient>
        <linearGradient
   id="_Linear11"
   x1="0"
   y1="0"
   x2="1"
   y2="0"
   gradientUnits="userSpaceOnUse"
   gradientTransform="matrix(-41.0932,-36.8306,36.8306,-41.0932,178.526,115.515)"><stop
     offset="0"
     style="stop-color:rgb(126,17,11);stop-opacity:1"
     id="stop71" /><stop
     offset="0"
     style="stop-color:rgb(126,17,11);stop-opacity:1"
     id="stop72" /><stop
     offset="0.99"
     style="stop-color:rgb(158,12,0);stop-opacity:1"
     id="stop73" /><stop
     offset="1"
     style="stop-color:rgb(158,12,0);stop-opacity:1"
     id="stop74" /></linearGradient>
        <linearGradient
   id="_Linear12"
   x1="0"
   y1="0"
   x2="1"
   y2="0"
   gradientUnits="userSpaceOnUse"
   gradientTransform="matrix(-20.4693,-21.8832,21.8832,-20.4693,193.624,47.937)"><stop
     offset="0"
     style="stop-color:rgb(121,19,13);stop-opacity:1"
     id="stop75" /><stop
     offset="0"
     style="stop-color:rgb(121,19,13);stop-opacity:1"
     id="stop76" /><stop
     offset="0.99"
     style="stop-color:rgb(158,18,11);stop-opacity:1"
     id="stop77" /><stop
     offset="1"
     style="stop-color:rgb(158,18,11);stop-opacity:1"
     id="stop78" /></linearGradient>
        <radialGradient
   id="_Radial13"
   cx="0"
   cy="0"
   r="1"
   gradientUnits="userSpaceOnUse"
   gradientTransform="matrix(50.3576,0,0,50.3576,143.832,79.3882)"><stop
     offset="0"
     style="stop-color:rgb(168,13,0);stop-opacity:1"
     id="stop79" /><stop
     offset="0"
     style="stop-color:rgb(168,13,0);stop-opacity:1"
     id="stop80" /><stop
     offset="0.99"
     style="stop-color:rgb(126,14,8);stop-opacity:1"
     id="stop81" /><stop
     offset="1"
     style="stop-color:rgb(126,14,8);stop-opacity:1"
     id="stop82" /></radialGradient>
        <radialGradient
   id="_Radial14"
   cx="0"
   cy="0"
   r="1"
   gradientUnits="userSpaceOnUse"
   gradientTransform="matrix(66.9437,0,0,66.9437,74.0923,145.751)"><stop
     offset="0"
     style="stop-color:rgb(163,12,0);stop-opacity:1"
     id="stop83" /><stop
     offset="0"
     style="stop-color:rgb(163,12,0);stop-opacity:1"
     id="stop84" /><stop
     offset="0.99"
     style="stop-color:rgb(128,14,8);stop-opacity:1"
     id="stop85" /><stop
     offset="1"
     style="stop-color:rgb(128,14,8);stop-opacity:1"
     id="stop86" /></radialGradient>
        <linearGradient
   id="_Linear15"
   x1="0"
   y1="0"
   x2="1"
   y2="0"
   gradientUnits="userSpaceOnUse"
   gradientTransform="matrix(-16.6812,-56.5939,56.5939,-16.6812,26.6699,197.336)"><stop
     offset="0"
     style="stop-color:rgb(139,33,20);stop-opacity:1"
     id="stop87" /><stop
     offset="0"
     style="stop-color:rgb(139,33,20);stop-opacity:1"
     id="stop88" /><stop
     offset="0.43"
     style="stop-color:rgb(158,16,10);stop-opacity:1"
     id="stop89" /><stop
     offset="0.99"
     style="stop-color:rgb(179,16,12);stop-opacity:1"
     id="stop90" /><stop
     offset="1"
     style="stop-color:rgb(179,16,12);stop-opacity:1"
     id="stop91" /></linearGradient>
        <linearGradient
   id="_Linear16"
   x1="0"
   y1="0"
   x2="1"
   y2="0"
   gradientUnits="userSpaceOnUse"
   gradientTransform="matrix(37.3979,16.508,-16.508,37.3979,154.641,9.7979)"><stop
     offset="0"
     style="stop-color:rgb(179,16,0);stop-opacity:1"
     id="stop92" /><stop
     offset="0"
     style="stop-color:rgb(179,16,0);stop-opacity:1"
     id="stop93" /><stop
     offset="0.44"
     style="stop-color:rgb(145,15,8);stop-opacity:1"
     id="stop94" /><stop
     offset="0.99"
     style="stop-color:rgb(121,28,18);stop-opacity:1"
     id="stop95" /><stop
     offset="1"
     style="stop-color:rgb(121,28,18);stop-opacity:1"
     id="stop96" /></linearGradient>
    </defs>
<metadata
   id="metadata1"><rdf:RDF><cc:Work
       rdf:about=""><dc:title>RubyLLM</dc:title></cc:Work></rdf:RDF></metadata></svg>
